<svg width="854" height="138" viewBox="73 431 854 138" fill="none" xmlns="http://www.w3.org/2000/svg" xmlns:xlink="http://www.w3.org/1999/xlink">
  <defs>
    <linearGradient id="light-gradient-1" x1="926.07" y1="419.86" x2="743.82" y2="632.03" gradientUnits="userSpaceOnUse">
      <stop offset="0" stop-color="#ff004c"/>
      <stop offset="1" stop-color="#000"/>
    </linearGradient>
  </defs>
  <g fill="#000">
    <rect x="245.7" y="430.91" width="24.28" height="137.57" rx="2.43" ry="2.43"/>
    <path d="M763.2,433.73v110.09c0,.64-.25,1.25-.7,1.7l-22.87,22.87c-.45.45-1.06.7-1.7.7h-25.47c-.9,0-1.72-.5-2.13-1.29l-66.28-127.65c-1.16-2.23-4.53-1.41-4.53,1.11v125.29c0,1.33-1.07,2.4-2.4,2.4h-20.88c-.55,0-1-.45-1-1v-111.9c0-.27.11-.52.29-.71l23.96-23.96.04-.04h26.5c.9,0,1.72.5,2.13,1.29l66.23,127.54c1.16,2.23,4.53,1.41,4.53-1.11v-125.33c0-1.33,1.07-2.4,2.4-2.4h19.48c1.33,0,2.4,1.07,2.4,2.4h0Z"/>
    <path d="M296.84,455.27l57.62.38c1.34,0,2.43,1.09,2.43,2.43v108.44c0,1.34,1.09,2.43,2.43,2.43h19.42c1.34,0,2.43-1.09,2.43-2.43v-87.21c0-.64-.26-1.26-.71-1.72l-17.8-17.8c-1.53-1.53-.45-4.14,1.72-4.14h75.9c1.34,0,2.43-1.09,2.43-2.43v-19.42c0-1.34-1.09-2.43-2.43-2.43l-143.43-.38c-1.34,0-2.43,1.09-2.43,2.43v19.42c0,1.34,1.09,2.43,2.43,2.43h-.01Z"/>
    <path d="M75.42,455.27l57.62.38c1.34,0,2.43,1.09,2.43,2.43v108.44c0,1.34,1.09,2.43,2.43,2.43h19.42c1.34,0,2.43-1.09,2.43-2.43v-87.21c0-.64-.26-1.26-.71-1.72l-17.8-17.8c-1.53-1.53-.45-4.14,1.72-4.14h75.9c1.34,0,2.43-1.09,2.43-2.43v-19.42c0-1.34-1.09-2.43-2.43-2.43l-143.43-.38c-1.34,0-2.43,1.09-2.43,2.43v19.42c0,1.34,1.09,2.43,2.43,2.43h0Z"/>
    <path d="M542.1,431.33h-50.49c-.64,0-1.26.26-1.71.71l-22.93,22.93v-.07l-23.57,23.57c-.45.45-.71,1.07-.71,1.71v86.49c0,1.34,1.08,2.42,2.42,2.42h19.44c1.34,0,2.42-1.08,2.42-2.42v-27.98c0-1.34,1.08-2.42,2.42-2.42h72.08c.64,0,1.26-.26,1.71-.71l19.37-19.37c1.52-1.52,4.13-.44,4.13,1.71v48.77c0,1.34,1.08,2.42,2.42,2.42h19.44c1.34,0,2.42-1.08,2.42-2.42v-86.49c0-.64-.26-1.26-.71-1.71l-46.44-46.43c-.45-.45-1.07-.71-1.71-.71h0ZM564.26,511.99h-94.87c-1.34,0-2.42-1.08-2.42-2.42v-49.96c0-2.21,1.79-4,4-4h91.72c2.21,0,4,1.79,4,4v49.96c0,1.34-1.08,2.42-2.42,2.42h-.01Z"/>
  </g>
  <path fill="url(#light-gradient-1)" d="M872.41,497.35l53.87,53.42c.95.94.96,2.48.02,3.43l-13.66,13.81c-.94.95-2.48.96-3.43.02l-44.8-44.45c-.46-.45-.72-1.07-.72-1.72l-.18-60.54c0-.64.25-1.26.7-1.72l27.22-27.52c.46-.46,1.08-.72,1.73-.72h27.32c2.16,0,3.24,2.6,1.73,4.14l-49.86,50.41c-3.14,3.18-3.11,8.3.06,11.44h0ZM850.44,540.69l-27.23,27.53c-.45.46-1.07.72-1.72.72h-27.35c-2.15,0-3.23-2.59-1.72-4.12l49.88-50.43c3.14-3.18,3.11-8.3-.06-11.44l-54.11-53.67c-.95-.94-.96-2.47-.02-3.42l13.67-13.82c.94-.95,2.47-.96,3.42-.02l45.05,44.7c.46.45.72,1.07.72,1.71l.18,60.55c0,.64-.25,1.25-.7,1.71h-.01Z"/>
</svg>