<svg width="1000" height="1000" viewBox="0 0 1000 1000" fill="none" xmlns="http://www.w3.org/2000/svg">
<path d="M267.549 430.91H248.129C246.787 430.91 245.699 431.998 245.699 433.34V566.05C245.699 567.392 246.787 568.48 248.129 568.48H267.549C268.891 568.48 269.979 567.392 269.979 566.05V433.34C269.979 431.998 268.891 430.91 267.549 430.91Z" fill="white"/>
<path d="M763.198 433.73V543.82C763.198 544.46 762.948 545.07 762.498 545.52L739.628 568.39C739.178 568.84 738.568 569.09 737.928 569.09H712.458C711.558 569.09 710.738 568.59 710.328 567.8L644.048 440.15C642.888 437.92 639.518 438.74 639.518 441.26V566.55C639.518 567.88 638.448 568.95 637.118 568.95H616.238C615.688 568.95 615.238 568.5 615.238 567.95V456.05C615.238 455.78 615.348 455.53 615.528 455.34L639.488 431.38L639.528 431.34H666.028C666.928 431.34 667.748 431.84 668.158 432.63L734.388 560.17C735.548 562.4 738.918 561.58 738.918 559.06V433.73C738.918 432.4 739.988 431.33 741.318 431.33H760.798C762.128 431.33 763.198 432.4 763.198 433.73Z" fill="white"/>
<path d="M296.842 455.27L354.462 455.65C355.802 455.65 356.892 456.74 356.892 458.08V566.52C356.892 567.86 357.982 568.95 359.322 568.95H378.742C380.082 568.95 381.172 567.86 381.172 566.52V479.31C381.172 478.67 380.912 478.05 380.462 477.59L362.662 459.79C361.132 458.26 362.212 455.65 364.382 455.65H440.282C441.622 455.65 442.712 454.56 442.712 453.22V433.8C442.712 432.46 441.622 431.37 440.282 431.37L296.852 430.99C295.512 430.99 294.422 432.08 294.422 433.42V452.84C294.422 454.18 295.512 455.27 296.852 455.27H296.842Z" fill="white"/>
<path d="M75.42 455.27L133.04 455.65C134.38 455.65 135.47 456.74 135.47 458.08V566.52C135.47 567.86 136.56 568.95 137.9 568.95H157.32C158.66 568.95 159.75 567.86 159.75 566.52V479.31C159.75 478.67 159.49 478.05 159.04 477.59L141.24 459.79C139.71 458.26 140.79 455.65 142.96 455.65H218.86C220.2 455.65 221.29 454.56 221.29 453.22V433.8C221.29 432.46 220.2 431.37 218.86 431.37L75.43 430.99C74.09 430.99 73 432.08 73 433.42V452.84C73 454.18 74.09 455.27 75.43 455.27H75.42Z" fill="white"/>
<path d="M872.408 497.35L926.278 550.77C927.228 551.71 927.238 553.25 926.298 554.2L912.638 568.01C911.698 568.96 910.158 568.97 909.208 568.03L864.408 523.58C863.948 523.13 863.688 522.51 863.688 521.86L863.508 461.32C863.508 460.68 863.758 460.06 864.208 459.6L891.428 432.08C891.888 431.62 892.508 431.36 893.158 431.36H920.478C922.638 431.36 923.718 433.96 922.208 435.5L872.348 485.91C869.208 489.09 869.238 494.21 872.408 497.35Z" fill="url(#paint0_linear_351_76)"/>
<path d="M850.439 540.69L823.209 568.22C822.759 568.68 822.139 568.94 821.489 568.94H794.139C791.989 568.94 790.909 566.35 792.419 564.82L842.299 514.39C845.439 511.21 845.409 506.09 842.239 502.95L788.129 449.28C787.179 448.34 787.169 446.81 788.109 445.86L801.779 432.04C802.719 431.09 804.249 431.08 805.199 432.02L850.249 476.72C850.709 477.17 850.969 477.79 850.969 478.43L851.149 538.98C851.149 539.62 850.899 540.23 850.449 540.69H850.439Z" fill="url(#paint1_linear_351_76)"/>
<path d="M542.101 431.33H491.611C490.971 431.33 490.351 431.59 489.901 432.04L466.971 454.97V454.9L443.401 478.47C442.951 478.92 442.691 479.54 442.691 480.18V566.67C442.691 568.01 443.771 569.09 445.111 569.09H464.551C465.891 569.09 466.971 568.01 466.971 566.67V538.69C466.971 537.35 468.051 536.27 469.391 536.27H541.471C542.111 536.27 542.731 536.01 543.181 535.56L562.551 516.19C564.071 514.67 566.681 515.75 566.681 517.9V566.67C566.681 568.01 567.761 569.09 569.101 569.09H588.541C589.881 569.09 590.961 568.01 590.961 566.67V480.18C590.961 479.54 590.701 478.92 590.251 478.47L543.811 432.04C543.361 431.59 542.741 431.33 542.101 431.33ZM564.261 511.99H469.391C468.051 511.99 466.971 510.91 466.971 509.57V459.61C466.971 457.4 468.761 455.61 470.971 455.61H562.691C564.901 455.61 566.691 457.4 566.691 459.61V509.57C566.691 510.91 565.611 511.99 564.271 511.99H564.261Z" fill="white"/>
<defs>
<linearGradient id="paint0_linear_351_76" x1="926.173" y1="430.503" x2="761.466" y2="453.481" gradientUnits="userSpaceOnUse">
<stop stop-color="#FF004C"/>
<stop offset="1"/>
</linearGradient>
<linearGradient id="paint1_linear_351_76" x1="860" y1="431" x2="700.725" y2="472.04" gradientUnits="userSpaceOnUse">
<stop stop-color="#FF004C"/>
<stop offset="1"/>
</linearGradient>
</defs>
</svg>
